<!-- <svg xmlns="http://www.w3.org/2000/svg" xmlns:xlink="http://www.w3.org/1999/xlink" width="1920" zoomAndPan="magnify" viewBox="0 0 1440 809.999993" height="1080" preserveAspectRatio="xMidYMid meet" version="1.0"><defs><clipPath id="167beea8ec"><path d="M 521.492188 193.148438 L 832.992188 193.148438 L 832.992188 504.652344 L 521.492188 504.652344 Z M 521.492188 193.148438 " clip-rule="nonzero"/></clipPath><clipPath id="9d90c92689"><path d="M 677.242188 193.148438 C 591.222656 193.148438 521.492188 262.882812 521.492188 348.898438 C 521.492188 434.917969 591.222656 504.652344 677.242188 504.652344 C 763.261719 504.652344 832.992188 434.917969 832.992188 348.898438 C 832.992188 262.882812 763.261719 193.148438 677.242188 193.148438 Z M 677.242188 193.148438 " clip-rule="nonzero"/></clipPath><clipPath id="c8de94f458"><path d="M 0.492188 0.148438 L 311.992188 0.148438 L 311.992188 311.652344 L 0.492188 311.652344 Z M 0.492188 0.148438 " clip-rule="nonzero"/></clipPath><clipPath id="876bef49e3"><path d="M 156.242188 0.148438 C 70.222656 0.148438 0.492188 69.882812 0.492188 155.898438 C 0.492188 241.917969 70.222656 311.652344 156.242188 311.652344 C 242.261719 311.652344 311.992188 241.917969 311.992188 155.898438 C 311.992188 69.882812 242.261719 0.148438 156.242188 0.148438 Z M 156.242188 0.148438 " clip-rule="nonzero"/></clipPath><clipPath id="5c64b9fe9a"><rect x="0" width="312" y="0" height="312"/></clipPath></defs><g clip-path="url(#167beea8ec)"><g clip-path="url(#9d90c92689)"><g transform="matrix(1, 0, 0, 1, 521, 193)"><g clip-path="url(#5c64b9fe9a)"><g clip-path="url(#c8de94f458)"><g clip-path="url(#876bef49e3)"><path fill="#8ab934" d="M 0.492188 0.148438 L 311.992188 0.148438 L 311.992188 311.652344 L 0.492188 311.652344 Z M 0.492188 0.148438 " fill-opacity="1" fill-rule="nonzero"/></g></g></g></g></g></g></svg> -->


<svg xmlns="http://www.w3.org/2000/svg" viewBox="0 0 312 312" preserveAspectRatio="xMidYMid meet">
  <circle cx="156" cy="156" r="156" fill="#8ab934"/>
</svg>
