<svg xmlns="http://www.w3.org/2000/svg" xmlns:xlink="http://www.w3.org/1999/xlink" width="333" zoomAndPan="magnify" viewBox="0 0 249.75 60.75" height="81" preserveAspectRatio="xMidYMid meet" version="1.0"><defs><g/><clipPath id="5f40751795"><path d="M 0.386719 9 L 45.949219 9 L 45.949219 54 L 0.386719 54 Z M 0.386719 9 " clip-rule="nonzero"/></clipPath></defs><path fill="#8ab934" d="M 16.511719 52.820312 C 16.546875 52.828125 16.582031 52.835938 16.617188 52.855469 C 16.785156 52.917969 17.050781 52.988281 17.386719 53.050781 C 17.085938 52.980469 16.792969 52.898438 16.511719 52.820312 Z M 16.511719 52.820312 " fill-opacity="1" fill-rule="nonzero"/><path fill="#8ab934" d="M 18.277344 34.082031 C 19.558594 34.089844 20.832031 34.089844 22.113281 34.082031 C 22.121094 35.21875 22.121094 36.359375 22.121094 37.5 C 20.839844 37.5 19.558594 37.5 18.277344 37.507812 C 18.269531 36.367188 18.269531 35.21875 18.277344 34.082031 Z M 18.277344 34.082031 " fill-opacity="1" fill-rule="nonzero"/><path fill="#8ab934" d="M 18.324219 38.71875 C 19.585938 38.691406 20.847656 38.691406 22.113281 38.710938 C 22.113281 39.839844 22.113281 40.972656 22.113281 42.113281 C 20.847656 42.113281 19.585938 42.121094 18.324219 42.101562 C 18.339844 40.980469 18.332031 39.851562 18.324219 38.71875 Z M 18.324219 38.71875 " fill-opacity="1" fill-rule="nonzero"/><path fill="#8ab934" d="M 23.527344 34.082031 C 23.921875 34.082031 24.320312 34.082031 24.71875 34.089844 C 24.921875 35.308594 25.425781 36.457031 26.042969 37.515625 C 25.195312 37.492188 24.355469 37.492188 23.515625 37.5 C 23.507812 36.359375 23.5 35.21875 23.527344 34.082031 Z M 23.527344 34.082031 " fill-opacity="1" fill-rule="nonzero"/><path fill="#8ab934" d="M 23.535156 38.683594 C 24.808594 38.703125 26.078125 38.703125 27.351562 38.683594 C 27.378906 39.824219 27.371094 40.964844 27.359375 42.113281 C 26.078125 42.113281 24.789062 42.113281 23.507812 42.113281 C 23.507812 40.972656 23.5 39.832031 23.535156 38.683594 Z M 23.535156 38.683594 " fill-opacity="1" fill-rule="nonzero"/><path fill="#8ab934" d="M 39.886719 32.992188 C 39.878906 30.925781 38.835938 28.867188 37.777344 27.128906 C 36.847656 25.714844 34.285156 22.488281 33.246094 21.3125 C 32.96875 21.015625 32.503906 21.003906 32.21875 21.296875 C 32.070312 21.445312 31.929688 21.625 31.785156 21.765625 C 29.710938 24.140625 27.742188 26.660156 26.441406 29.558594 C 25.8125 30.933594 25.453125 32.464844 25.683594 33.984375 C 26.007812 36.6875 28.09375 39.054688 30.699219 39.804688 C 32.960938 40.433594 35.542969 39.992188 37.34375 38.445312 C 40.03125 36.367188 39.886719 32.992188 39.886719 32.992188 Z M 36.167969 38.046875 C 36.089844 37.457031 35.816406 36.8125 36.117188 36.246094 C 36.585938 35.273438 37.125 34.292969 37.160156 33.1875 C 37.363281 29.964844 35.878906 26.90625 34.304688 24.203125 C 34.367188 24.160156 34.347656 24.167969 34.410156 24.125 C 36.390625 26.207031 38.121094 28.789062 38.722656 31.632812 C 39.101562 33.417969 38.75 35.308594 37.617188 36.738281 C 37.210938 37.242188 36.734375 37.683594 36.167969 38.046875 Z M 36.167969 38.046875 " fill-opacity="1" fill-rule="nonzero"/><g clip-path="url(#5f40751795)"><path fill="#8ab934" d="M 44.722656 27.667969 C 43.996094 24.425781 42.8125 21.226562 40.824219 18.539062 C 37.734375 14.378906 33.148438 11.339844 28.09375 10.183594 C 21.078125 8.519531 13.320312 10.535156 8.054688 15.472656 C 4.417969 18.875 1.757812 23.515625 1.234375 28.507812 C 0.386719 32.957031 1.289062 37.660156 3.292969 41.6875 C 5.636719 46.34375 9.691406 50.097656 14.496094 52.105469 C 15.152344 52.378906 15.820312 52.617188 16.503906 52.828125 C 16.792969 52.90625 17.085938 52.988281 17.367188 53.050781 C 17.386719 53.050781 17.394531 53.058594 17.402344 53.058594 C 20.734375 53.828125 24.066406 53.738281 24.90625 53.703125 C 24.949219 53.703125 24.984375 53.703125 25.019531 53.695312 C 25.082031 53.695312 25.109375 53.6875 25.109375 53.6875 C 31.929688 53.101562 38.332031 49.089844 41.886719 43.234375 C 44.757812 38.648438 45.691406 32.976562 44.722656 27.667969 Z M 39.023438 40.769531 C 38.96875 39.894531 38.988281 39.019531 38.96875 38.144531 C 37.917969 39.25 36.664062 40.1875 35.195312 40.664062 C 35.171875 42.304688 35.234375 43.949219 35.152344 45.59375 C 31.742188 48.5 27.316406 50.238281 22.808594 50.144531 C 18.527344 50.152344 14.355469 48.480469 11.070312 45.777344 C 11.058594 41.632812 11.070312 37.5 11.058594 33.363281 C 15.054688 29.460938 19.101562 25.597656 23.085938 21.667969 C 24.535156 23.054688 25.945312 24.484375 27.421875 25.863281 C 28.121094 24.847656 28.890625 23.894531 29.597656 22.894531 C 27.476562 20.757812 25.238281 18.734375 23.09375 16.613281 C 21.554688 18.132812 20.011719 19.652344 18.4375 21.136719 C 18.417969 20.871094 18.394531 20.34375 18.375 20.085938 C 16.882812 20.070312 15.398438 20.070312 13.90625 20.078125 C 13.878906 21.898438 13.941406 23.726562 13.859375 25.546875 C 12.003906 27.242188 10.210938 29 8.367188 30.695312 C 7.957031 31.15625 7.226562 31.527344 7.324219 32.242188 C 7.324219 35.292969 7.332031 38.339844 7.324219 41.386719 C 3.796875 35.9375 3.648438 28.566406 6.84375 22.921875 C 9.1875 18.664062 13.214844 15.296875 17.914062 13.988281 C 22.308594 12.699219 27.175781 13.125 31.257812 15.191406 C 34.984375 17.101562 38.09375 20.273438 39.84375 24.078125 C 42.351562 29.320312 41.902344 35.777344 39.023438 40.769531 Z M 39.023438 40.769531 " fill-opacity="1" fill-rule="nonzero"/></g><g fill="#ffffff" fill-opacity="1"><g transform="translate(59.692126, 24.712802)"><g><path d="M 8.734375 0.25 C 7.242188 0.25 5.894531 -0.0703125 4.6875 -0.71875 C 3.488281 -1.363281 2.539062 -2.257812 1.84375 -3.40625 C 1.15625 -4.5625 0.8125 -5.863281 0.8125 -7.3125 C 0.8125 -8.757812 1.15625 -10.054688 1.84375 -11.203125 C 2.539062 -12.359375 3.488281 -13.257812 4.6875 -13.90625 C 5.894531 -14.5625 7.253906 -14.890625 8.765625 -14.890625 C 10.023438 -14.890625 11.164062 -14.664062 12.1875 -14.21875 C 13.21875 -13.769531 14.082031 -13.128906 14.78125 -12.296875 L 12.609375 -10.28125 C 11.617188 -11.425781 10.390625 -12 8.921875 -12 C 8.015625 -12 7.207031 -11.800781 6.5 -11.40625 C 5.789062 -11.007812 5.238281 -10.453125 4.84375 -9.734375 C 4.445312 -9.023438 4.25 -8.21875 4.25 -7.3125 C 4.25 -6.40625 4.445312 -5.597656 4.84375 -4.890625 C 5.238281 -4.179688 5.789062 -3.628906 6.5 -3.234375 C 7.207031 -2.835938 8.015625 -2.640625 8.921875 -2.640625 C 10.390625 -2.640625 11.617188 -3.21875 12.609375 -4.375 L 14.78125 -2.359375 C 14.082031 -1.515625 13.21875 -0.867188 12.1875 -0.421875 C 11.15625 0.0234375 10.003906 0.25 8.734375 0.25 Z M 8.734375 0.25 "/></g></g></g><g fill="#ffffff" fill-opacity="1"><g transform="translate(75.022098, 24.712802)"><g><path d="M 1.734375 -14.640625 L 5.125 -14.640625 L 5.125 -2.765625 L 12.453125 -2.765625 L 12.453125 0 L 1.734375 0 Z M 1.734375 -14.640625 "/></g></g></g><g fill="#ffffff" fill-opacity="1"><g transform="translate(87.654161, 24.712802)"><g><path d="M 13.0625 -2.71875 L 13.0625 0 L 1.734375 0 L 1.734375 -14.640625 L 12.796875 -14.640625 L 12.796875 -11.921875 L 5.09375 -11.921875 L 5.09375 -8.734375 L 11.890625 -8.734375 L 11.890625 -6.109375 L 5.09375 -6.109375 L 5.09375 -2.71875 Z M 13.0625 -2.71875 "/></g></g></g><g fill="#ffffff" fill-opacity="1"><g transform="translate(101.687464, 24.712802)"><g><path d="M 11.375 -3.140625 L 4.578125 -3.140625 L 3.28125 0 L -0.1875 0 L 6.328125 -14.640625 L 9.671875 -14.640625 L 16.21875 0 L 12.671875 0 Z M 10.3125 -5.703125 L 7.984375 -11.3125 L 5.671875 -5.703125 Z M 10.3125 -5.703125 "/></g></g></g><g fill="#ffffff" fill-opacity="1"><g transform="translate(117.707604, 24.712802)"><g><path d="M 15.15625 -14.640625 L 15.15625 0 L 12.375 0 L 5.078125 -8.890625 L 5.078125 0 L 1.734375 0 L 1.734375 -14.640625 L 4.53125 -14.640625 L 11.8125 -5.75 L 11.8125 -14.640625 Z M 15.15625 -14.640625 "/></g></g></g><g fill="#ffffff" fill-opacity="1"><g transform="translate(134.606137, 24.712802)"><g><path d="M 1.734375 -14.640625 L 5.125 -14.640625 L 5.125 0 L 1.734375 0 Z M 1.734375 -14.640625 "/></g></g></g><g fill="#ffffff" fill-opacity="1"><g transform="translate(141.465935, 24.712802)"><g><path d="M 15.15625 -14.640625 L 15.15625 0 L 12.375 0 L 5.078125 -8.890625 L 5.078125 0 L 1.734375 0 L 1.734375 -14.640625 L 4.53125 -14.640625 L 11.8125 -5.75 L 11.8125 -14.640625 Z M 15.15625 -14.640625 "/></g></g></g><g fill="#ffffff" fill-opacity="1"><g transform="translate(158.364468, 24.712802)"><g><path d="M 11.625 -7.546875 L 14.71875 -7.546875 L 14.71875 -1.609375 C 13.925781 -1.003906 13.003906 -0.539062 11.953125 -0.21875 C 10.910156 0.09375 9.859375 0.25 8.796875 0.25 C 7.273438 0.25 5.910156 -0.0703125 4.703125 -0.71875 C 3.492188 -1.363281 2.539062 -2.257812 1.84375 -3.40625 C 1.15625 -4.5625 0.8125 -5.863281 0.8125 -7.3125 C 0.8125 -8.757812 1.15625 -10.054688 1.84375 -11.203125 C 2.539062 -12.359375 3.5 -13.257812 4.71875 -13.90625 C 5.945312 -14.5625 7.328125 -14.890625 8.859375 -14.890625 C 10.140625 -14.890625 11.300781 -14.671875 12.34375 -14.234375 C 13.394531 -13.804688 14.273438 -13.179688 14.984375 -12.359375 L 12.8125 -10.34375 C 11.769531 -11.445312 10.507812 -12 9.03125 -12 C 8.09375 -12 7.257812 -11.800781 6.53125 -11.40625 C 5.8125 -11.019531 5.25 -10.472656 4.84375 -9.765625 C 4.445312 -9.054688 4.25 -8.238281 4.25 -7.3125 C 4.25 -6.40625 4.445312 -5.597656 4.84375 -4.890625 C 5.25 -4.179688 5.8125 -3.628906 6.53125 -3.234375 C 7.25 -2.835938 8.066406 -2.640625 8.984375 -2.640625 C 9.960938 -2.640625 10.84375 -2.847656 11.625 -3.265625 Z M 11.625 -7.546875 "/></g></g></g><g fill="#ffffff" fill-opacity="1"><g transform="translate(59.692126, 47.867515)"><g><path d="M 6.546875 0.25 C 5.390625 0.25 4.269531 0.09375 3.1875 -0.21875 C 2.101562 -0.53125 1.234375 -0.9375 0.578125 -1.4375 L 1.734375 -4 C 2.359375 -3.53125 3.101562 -3.15625 3.96875 -2.875 C 4.832031 -2.601562 5.695312 -2.46875 6.5625 -2.46875 C 7.519531 -2.46875 8.226562 -2.609375 8.6875 -2.890625 C 9.15625 -3.179688 9.390625 -3.5625 9.390625 -4.03125 C 9.390625 -4.382812 9.253906 -4.675781 8.984375 -4.90625 C 8.710938 -5.132812 8.363281 -5.316406 7.9375 -5.453125 C 7.507812 -5.597656 6.929688 -5.753906 6.203125 -5.921875 C 5.085938 -6.179688 4.175781 -6.441406 3.46875 -6.703125 C 2.757812 -6.972656 2.148438 -7.398438 1.640625 -7.984375 C 1.128906 -8.566406 0.875 -9.347656 0.875 -10.328125 C 0.875 -11.179688 1.101562 -11.953125 1.5625 -12.640625 C 2.03125 -13.328125 2.722656 -13.875 3.640625 -14.28125 C 4.566406 -14.6875 5.703125 -14.890625 7.046875 -14.890625 C 7.984375 -14.890625 8.894531 -14.773438 9.78125 -14.546875 C 10.675781 -14.328125 11.457031 -14.007812 12.125 -13.59375 L 11.078125 -11.015625 C 9.722656 -11.785156 8.375 -12.171875 7.03125 -12.171875 C 6.082031 -12.171875 5.378906 -12.015625 4.921875 -11.703125 C 4.472656 -11.398438 4.25 -11 4.25 -10.5 C 4.25 -10 4.507812 -9.625 5.03125 -9.375 C 5.550781 -9.132812 6.347656 -8.894531 7.421875 -8.65625 C 8.535156 -8.394531 9.445312 -8.128906 10.15625 -7.859375 C 10.875 -7.597656 11.484375 -7.179688 11.984375 -6.609375 C 12.492188 -6.035156 12.75 -5.257812 12.75 -4.28125 C 12.75 -3.445312 12.515625 -2.6875 12.046875 -2 C 11.585938 -1.3125 10.890625 -0.765625 9.953125 -0.359375 C 9.015625 0.046875 7.878906 0.25 6.546875 0.25 Z M 6.546875 0.25 "/></g></g></g><g fill="#ffffff" fill-opacity="1"><g transform="translate(73.035272, 47.867515)"><g><path d="M 13.0625 -2.71875 L 13.0625 0 L 1.734375 0 L 1.734375 -14.640625 L 12.796875 -14.640625 L 12.796875 -11.921875 L 5.09375 -11.921875 L 5.09375 -8.734375 L 11.890625 -8.734375 L 11.890625 -6.109375 L 5.09375 -6.109375 L 5.09375 -2.71875 Z M 13.0625 -2.71875 "/></g></g></g><g fill="#ffffff" fill-opacity="1"><g transform="translate(87.068574, 47.867515)"><g><path d="M 11.0625 0 L 8.234375 -4.078125 L 5.125 -4.078125 L 5.125 0 L 1.734375 0 L 1.734375 -14.640625 L 8.0625 -14.640625 C 9.363281 -14.640625 10.488281 -14.421875 11.4375 -13.984375 C 12.394531 -13.554688 13.128906 -12.941406 13.640625 -12.140625 C 14.160156 -11.347656 14.421875 -10.410156 14.421875 -9.328125 C 14.421875 -8.234375 14.160156 -7.289062 13.640625 -6.5 C 13.117188 -5.71875 12.378906 -5.117188 11.421875 -4.703125 L 14.703125 0 Z M 11 -9.328125 C 11 -10.148438 10.734375 -10.78125 10.203125 -11.21875 C 9.671875 -11.65625 8.894531 -11.875 7.875 -11.875 L 5.125 -11.875 L 5.125 -6.78125 L 7.875 -6.78125 C 8.894531 -6.78125 9.671875 -7 10.203125 -7.4375 C 10.734375 -7.882812 11 -8.515625 11 -9.328125 Z M 11 -9.328125 "/></g></g></g><g fill="#ffffff" fill-opacity="1"><g transform="translate(102.440374, 47.867515)"><g><path d="M 15.8125 -14.640625 L 9.46875 0 L 6.125 0 L -0.1875 -14.640625 L 3.46875 -14.640625 L 7.921875 -4.1875 L 12.4375 -14.640625 Z M 15.8125 -14.640625 "/></g></g></g><g fill="#ffffff" fill-opacity="1"><g transform="translate(118.042237, 47.867515)"><g><path d="M 1.734375 -14.640625 L 5.125 -14.640625 L 5.125 0 L 1.734375 0 Z M 1.734375 -14.640625 "/></g></g></g><g fill="#ffffff" fill-opacity="1"><g transform="translate(124.902034, 47.867515)"><g><path d="M 8.734375 0.25 C 7.242188 0.25 5.894531 -0.0703125 4.6875 -0.71875 C 3.488281 -1.363281 2.539062 -2.257812 1.84375 -3.40625 C 1.15625 -4.5625 0.8125 -5.863281 0.8125 -7.3125 C 0.8125 -8.757812 1.15625 -10.054688 1.84375 -11.203125 C 2.539062 -12.359375 3.488281 -13.257812 4.6875 -13.90625 C 5.894531 -14.5625 7.253906 -14.890625 8.765625 -14.890625 C 10.023438 -14.890625 11.164062 -14.664062 12.1875 -14.21875 C 13.21875 -13.769531 14.082031 -13.128906 14.78125 -12.296875 L 12.609375 -10.28125 C 11.617188 -11.425781 10.390625 -12 8.921875 -12 C 8.015625 -12 7.207031 -11.800781 6.5 -11.40625 C 5.789062 -11.007812 5.238281 -10.453125 4.84375 -9.734375 C 4.445312 -9.023438 4.25 -8.21875 4.25 -7.3125 C 4.25 -6.40625 4.445312 -5.597656 4.84375 -4.890625 C 5.238281 -4.179688 5.789062 -3.628906 6.5 -3.234375 C 7.207031 -2.835938 8.015625 -2.640625 8.921875 -2.640625 C 10.390625 -2.640625 11.617188 -3.21875 12.609375 -4.375 L 14.78125 -2.359375 C 14.082031 -1.515625 13.21875 -0.867188 12.1875 -0.421875 C 11.15625 0.0234375 10.003906 0.25 8.734375 0.25 Z M 8.734375 0.25 "/></g></g></g><g fill="#ffffff" fill-opacity="1"><g transform="translate(140.232006, 47.867515)"><g><path d="M 13.0625 -2.71875 L 13.0625 0 L 1.734375 0 L 1.734375 -14.640625 L 12.796875 -14.640625 L 12.796875 -11.921875 L 5.09375 -11.921875 L 5.09375 -8.734375 L 11.890625 -8.734375 L 11.890625 -6.109375 L 5.09375 -6.109375 L 5.09375 -2.71875 Z M 13.0625 -2.71875 "/></g></g></g></svg>